<svg xmlns="http://www.w3.org/2000/svg" width="24" height="24" fill="none" viewBox="0 0 24 24"><path fill="#000" fill-rule="evenodd" d="M17.6571 6.34294C17.94 6.6258 18.027 7.05002 17.8785 7.42144L15.05 14.4925C14.9252 14.8046 14.6519 15.0331 14.3226 15.1007C13.9934 15.1683 13.6521 15.0659 13.4145 14.8282L9.17182 10.5856C8.93413 10.3479 8.83176 10.0067 8.89935 9.67741C8.96693 9.34813 9.19543 9.07484 9.50753 8.95L16.5786 6.12157C16.95 5.973 17.3742 6.06008 17.6571 6.34294ZM11.6584 10.2437L13.7563 12.3417L15.1549 8.8451L11.6584 10.2437Z" clip-rule="evenodd"/><path fill="#000" fill-rule="evenodd" d="M9.67719 8.8989C10.0065 8.83132 10.3477 8.93368 10.5854 9.17137L14.828 13.414C15.0657 13.6517 15.1681 13.9929 15.1005 14.3222C15.0329 14.6515 14.8044 14.9248 14.4923 15.0496L7.42122 17.878C7.04981 18.0266 6.62559 17.9395 6.34273 17.6567C6.05986 17.3738 5.97279 16.9496 6.12136 16.5782L8.94978 9.50709C9.07462 9.19499 9.34792 8.96649 9.67719 8.8989ZM10.2435 11.6579L8.84489 15.1545L12.3414 13.7559L10.2435 11.6579Z" clip-rule="evenodd"/><path fill="#000" fill-rule="evenodd" d="M11.999 2.99991C7.02846 2.99991 2.99902 7.02935 2.99902 11.9999C2.99902 16.9705 7.02846 20.9999 11.999 20.9999C16.9696 20.9999 20.999 16.9705 20.999 11.9999C20.999 7.02935 16.9696 2.99991 11.999 2.99991ZM0.999023 11.9999C0.999023 5.92478 5.92389 0.999908 11.999 0.999908C18.0742 0.999908 22.999 5.92478 22.999 11.9999C22.999 18.075 18.0742 22.9999 11.999 22.9999C5.92389 22.9999 0.999023 18.075 0.999023 11.9999Z" clip-rule="evenodd"/></svg>