<svg xmlns="http://www.w3.org/2000/svg" data-name="Layer 2" viewBox="0 0 35 35"><path d="M9.61,18.82l5.91-6.53a.42.42,0,0,1,.61,0l3.51,3.45a.44.44,0,0,0,.51.07l4.69-2.6a.43.43,0,0,1,.52.66L19.41,20.4a.43.43,0,0,1-.61,0l-3.52-3.48a.42.42,0,0,0-.5-.07l-4.65,2.6A.42.42,0,0,1,9.61,18.82Z"/><path d="M8.05,34a2.27,2.27,0,0,1-2.26-2.26V27A15.22,15.22,0,0,1,1,15.94C1,7.29,8.42.25,17.5.25S34,7.29,34,15.94,26.58,31.63,17.5,31.63a17.09,17.09,0,0,1-4-.48L9.2,33.67A2.24,2.24,0,0,1,8.05,34ZM17.5,2.75c-7.7,0-14,5.92-14,13.19a12.74,12.74,0,0,0,4.06,9.29,2.24,2.24,0,0,1,.7,1.63v4.45l4-2.36A2.22,2.22,0,0,1,14,28.7a14.88,14.88,0,0,0,3.52.43c7.7,0,14-5.92,14-13.19S25.2,2.75,17.5,2.75ZM5.87,27h0Z"/></svg>